<svg width="25" height="24" viewBox="0 0 25 24" fill="none" xmlns="http://www.w3.org/2000/svg">
<path d="M19.9049 2.35483C20.4866 2.71717 21.0145 3.1555 21.4991 3.63842C22.8648 4.99945 23.8437 6.73521 24.2814 8.61411C25.0154 11.7637 24.3252 15.2459 22.624 17.9752C21.401 19.9372 19.7373 21.5472 17.6756 22.6071C17.2881 22.8063 16.8804 23.0053 16.4696 23.1526L15.453 23.4984C13.1113 24.1655 10.5904 24.1872 8.27751 23.3837C7.59138 23.1453 6.93825 22.8289 6.30485 22.4762C5.62807 22.0994 5.0042 21.6242 4.43816 21.0967C4.26255 20.933 4.07901 20.7704 3.91462 20.5954C3.03193 19.6562 2.36002 18.5824 1.83681 17.4094C1.59318 16.8631 1.37861 16.2998 1.21484 15.7243L1.22824 15.725C1.36678 16.1485 1.52311 16.5691 1.70232 16.9773C1.7952 17.1888 1.89021 17.4076 2.00861 17.6059C2.14644 17.9107 2.35255 18.2041 2.54015 18.48C3.63842 20.096 5.2401 21.3043 7.06088 21.9912C8.70242 22.6106 10.5106 22.7657 12.2466 22.5598L13.3802 22.3678C13.5245 22.3175 13.6813 22.287 13.8291 22.2461L14.7885 21.9539C14.9672 21.893 15.155 21.8309 15.3244 21.7475C15.3608 21.7447 15.4125 21.717 15.447 21.7031L15.7602 21.57C16.8498 21.0842 17.8526 20.4453 18.7757 19.6921C19.4284 19.1597 20.0145 18.5515 20.5435 17.8974C22.1119 15.9581 23.1394 13.5824 23.3927 11.0942L23.3966 11.0877C23.4245 10.9531 23.4262 10.7908 23.4313 10.6523L23.4298 9.78297C23.3925 8.45884 23.1161 7.13369 22.5813 5.91858C22.2038 5.06095 21.6775 4.23847 21.0762 3.5207C20.9122 3.32499 20.7444 3.13945 20.5621 2.96063L20.1308 2.56841C20.0649 2.51121 19.9349 2.43306 19.9049 2.35483Z" fill="url(#paint0_linear_755_2332)"/>
<path d="M0.875889 14.1693C0.620804 12.5765 0.720582 10.8965 1.14264 9.34078C1.34301 8.60218 1.62419 7.88772 1.95589 7.19884C3.42155 4.15497 6.08578 1.78027 9.27187 0.662724C11.9846 -0.288805 15.0038 -0.239566 17.6133 1.01396C17.8467 1.11858 18.0824 1.22541 18.3065 1.34875L18.9489 1.74297L19.6629 2.19112L19.84 2.30885C19.8572 2.32063 19.8942 2.33953 19.9046 2.35484C19.9347 2.43308 20.0646 2.51122 20.1305 2.56843L20.5619 2.96065C20.7441 3.13947 20.912 3.325 21.076 3.52071C21.6773 4.23849 22.2036 5.06097 22.581 5.9186C23.1159 7.1337 23.3922 8.45885 23.4295 9.78299L23.4311 10.6523C23.426 10.7908 23.4242 10.9531 23.3964 11.0877L23.3925 11.0942C23.1392 13.5824 22.1116 15.9581 20.5433 17.8975C20.0143 18.5515 19.4281 19.1597 18.7755 19.6922C17.8523 20.4453 16.8495 21.0842 15.76 21.57L15.4467 21.7031C15.4123 21.717 15.3605 21.7448 15.3242 21.7475C15.1548 21.831 14.9669 21.893 14.7882 21.9539L13.8289 22.2461C13.6811 22.287 13.5242 22.3175 13.38 22.3678L12.2464 22.5598C10.5104 22.7657 8.70217 22.6106 7.06063 21.9912C5.23985 21.3043 3.63817 20.096 2.5399 18.4801C2.3523 18.2041 2.1462 17.9108 2.00836 17.606C1.88997 17.4077 1.79495 17.1888 1.70208 16.9773C1.52287 16.5691 1.36653 16.1485 1.22799 15.7251L1.2146 15.7243C1.16048 15.5981 1.13065 15.4478 1.09702 15.3146C1.00176 14.9374 0.928745 14.5547 0.875889 14.1693Z" fill="#1182FD"/>
<path d="M17.6134 1.01395C17.8468 1.11857 18.0824 1.2254 18.3066 1.34874L18.949 1.74296L19.663 2.19111L19.8401 2.30884C19.8573 2.32062 19.8943 2.33952 19.9047 2.35484C19.9347 2.43307 20.0647 2.51122 20.1306 2.56842L20.5619 2.96064C20.7442 3.13946 20.9121 3.32499 21.0761 3.5207C21.6774 4.23848 22.2037 5.06096 22.5811 5.91859C23.1159 7.1337 23.3923 8.45884 23.4296 9.78298L23.4312 10.6523C23.426 10.7908 23.4243 10.9531 23.3964 11.0877L23.3926 11.0942C23.1392 13.5824 22.1117 15.9581 20.5434 17.8975C20.0144 18.5515 19.4282 19.1597 18.7755 19.6921C17.8524 20.4453 16.8496 21.0842 15.7601 21.57L15.4468 21.7031C15.4124 21.717 15.3606 21.7447 15.3243 21.7475C15.1549 21.831 14.967 21.893 14.7883 21.9539L13.829 22.2461C13.6811 22.287 13.5243 22.3175 13.3801 22.3678L12.2465 22.5598C10.5105 22.7657 8.70226 22.6106 7.06072 21.9912C5.23994 21.3043 3.63826 20.096 2.53999 18.4801C2.35239 18.2041 2.14628 17.9108 2.00845 17.6059C1.89005 17.4076 1.79504 17.1888 1.70216 16.9773C1.52295 16.5691 1.36662 16.1485 1.22808 15.725L1.21468 15.7243C1.16057 15.5981 1.13073 15.4478 1.09711 15.3146C1.00185 14.9374 0.928832 14.5547 0.875977 14.1693C0.924686 14.2485 0.939912 14.3484 0.959485 14.4385L1.05336 14.8735L1.17974 15.324C1.30142 15.7033 1.44621 16.0859 1.61578 16.4463L2.0232 17.2561L2.03209 17.2682C2.11813 17.3879 2.18723 17.526 2.26988 17.6498C2.49288 17.9842 2.72998 18.3042 2.98933 18.6113C4.45756 20.3504 6.52514 21.5176 8.76925 21.8951C9.29127 21.9829 9.80709 22.0446 10.3364 22.0639C11.5657 22.1087 12.8115 21.923 13.9922 21.586L15.1383 21.2003C15.167 21.17 15.2748 21.1404 15.3177 21.1225L15.8118 20.9058C16.2213 20.7128 16.6234 20.4925 17.013 20.2622C17.4351 20.0128 17.8218 19.7296 18.2082 19.4295C18.4826 19.2166 18.7575 19.0009 19.01 18.762C20.5095 17.343 21.6122 15.5917 22.2774 13.6414C22.6592 12.5221 22.8898 11.3656 22.9206 10.1805C22.9331 9.44115 22.8622 8.72377 22.7293 7.9965C22.512 6.8071 22.0448 5.60429 21.4029 4.58006C20.7803 3.58637 19.9229 2.65839 18.9934 1.9419C18.6963 1.71286 18.3648 1.49828 18.0446 1.30173C17.9016 1.21397 17.7463 1.13954 17.6089 1.04444L17.6134 1.01395Z" fill="url(#paint1_linear_755_2332)"/>
<path d="M5.77321 18.7301C5.57865 18.5946 5.39587 18.4325 5.21774 18.2761C4.39107 17.5499 3.71513 16.6711 3.24656 15.6743C3.07797 15.3156 2.92487 14.9459 2.80872 14.5666C2.7233 14.2877 2.66475 13.997 2.6118 13.7102C2.55322 13.393 2.5012 13.0727 2.47924 12.7506C2.39011 11.4428 2.61434 10.0779 3.06352 8.8493C3.35615 8.04894 3.73178 7.26908 4.19455 6.55243C5.30654 4.83033 6.91771 3.40776 8.77748 2.54698C10.4589 1.76873 12.379 1.48453 14.2108 1.78144C14.7898 1.87528 15.3472 2.03579 15.8968 2.23848C17.2488 2.73707 18.4033 3.60077 19.3502 4.6771C19.6206 4.98439 19.9076 5.34543 20.0802 5.71871C20.0036 5.66137 19.9435 5.54696 19.8792 5.47188C19.5971 5.13225 19.295 4.79473 18.9623 4.50373C17.7171 3.41491 16.0614 2.7409 14.4196 2.58817C13.7453 2.52543 13.0689 2.52201 12.3953 2.60086C10.4917 2.82372 8.62676 3.68066 7.16078 4.9047C5.65078 6.16552 4.53455 7.84862 3.92323 9.71424C3.69779 10.4023 3.53529 11.1134 3.47211 11.8356C3.36457 13.0648 3.48209 14.3161 3.86476 15.4917C3.94864 15.7494 4.0692 15.9881 4.15915 16.2412C4.4261 16.868 4.76505 17.4561 5.18083 17.9964L5.56692 18.4688C5.63375 18.548 5.72797 18.6372 5.77321 18.7301Z" fill="#031CCD"/>
<path d="M4.15913 16.2412C4.06919 15.9881 3.94862 15.7494 3.86474 15.4917C3.48207 14.3161 3.36455 13.0648 3.47209 11.8356C3.53527 11.1134 3.69777 10.4023 3.92322 9.71423C4.53454 7.8486 5.65076 6.1655 7.16076 4.90469C8.62674 3.68065 10.4917 2.82371 12.3953 2.60085C13.0689 2.522 13.7452 2.52542 14.4196 2.58815C16.0613 2.74089 17.7171 3.4149 18.9623 4.50372C19.295 4.79472 19.5971 5.13224 19.8792 5.47186L4.15913 16.2412Z" fill="#1182FD"/>
<path d="M19.8792 5.47186C19.9436 5.54695 20.0036 5.66135 20.0802 5.7187C20.1318 5.77617 20.1647 5.85706 20.2019 5.92474L20.4482 6.40024C21.0493 7.70438 21.3043 9.13924 21.2288 10.5705C21.0856 13.281 19.7142 15.8514 17.7114 17.6514C17.1178 18.1848 16.4318 18.6688 15.7283 19.0459L14.9844 19.4001C14.4513 19.6394 13.8974 19.8436 13.3304 19.9875C13.0266 20.0647 12.7206 20.1182 12.4115 20.1682C11.7684 20.2723 11.1022 20.3261 10.4506 20.2898C9.20633 20.2204 8.0308 19.9332 6.90422 19.4012C6.51463 19.2172 6.11679 19.0025 5.7752 18.7381L5.77324 18.7301C5.728 18.6372 5.63379 18.548 5.56695 18.4688L5.18086 17.9964C4.76508 17.4561 4.42613 16.8679 4.15918 16.2412L19.8792 5.47186Z" fill="#0963F9"/>
<g filter="url(#filter0_d_755_2332)">
<path fill-rule="evenodd" clip-rule="evenodd" d="M11.8765 4.20808C10.5733 3.49599 8.94166 4.10483 8.42347 5.49654L4.82799 15.1529C4.70381 15.4864 4.77917 15.8615 5.02255 16.1211C5.26592 16.3808 5.63534 16.4802 5.97619 16.3779L18.5326 12.6074C20.5974 11.9874 20.8999 9.18912 19.0153 8.14215L15.3718 6.11799L15.3661 6.11481L11.8765 4.20808ZM10.1806 6.15081C10.3002 5.82964 10.6767 5.68914 10.9775 5.85347L13.3242 7.13576L7.96198 12.1094L10.1806 6.15081ZM9.3057 13.4204L15.0556 8.08722L18.1048 9.7812C18.5396 10.0228 18.4698 10.6686 17.9934 10.8116L9.3057 13.4204Z" fill="url(#paint2_linear_755_2332)"/>
</g>
<defs>
<filter id="filter0_d_755_2332" x="4.76904" y="3.90866" width="15.5005" height="13.2589" filterUnits="userSpaceOnUse" color-interpolation-filters="sRGB">
<feFlood flood-opacity="0" result="BackgroundImageFix"/>
<feColorMatrix in="SourceAlpha" type="matrix" values="0 0 0 0 0 0 0 0 0 0 0 0 0 0 0 0 0 0 127 0" result="hardAlpha"/>
<feOffset dy="0.75"/>
<feComposite in2="hardAlpha" operator="out"/>
<feColorMatrix type="matrix" values="0 0 0 0 0.0117647 0 0 0 0 0.109804 0 0 0 0 0.803922 0 0 0 1 0"/>
<feBlend mode="normal" in2="BackgroundImageFix" result="effect1_dropShadow_755_2332"/>
<feBlend mode="normal" in="SourceGraphic" in2="effect1_dropShadow_755_2332" result="shape"/>
</filter>
<linearGradient id="paint0_linear_755_2332" x1="2.14731" y1="18.4343" x2="24.9594" y2="10.3592" gradientUnits="userSpaceOnUse">
<stop stop-color="#000C39"/>
<stop offset="1" stop-color="#0751FF"/>
</linearGradient>
<linearGradient id="paint1_linear_755_2332" x1="5.93683" y1="7.02963" x2="20.8127" y2="17.5566" gradientUnits="userSpaceOnUse">
<stop stop-color="#00A2FF"/>
<stop offset="1" stop-color="#4FCFFB"/>
</linearGradient>
<linearGradient id="paint2_linear_755_2332" x1="13.1135" y1="5.26558" x2="18.2477" y2="12.6053" gradientUnits="userSpaceOnUse">
<stop offset="0.435" stop-color="#8FE1FF"/>
<stop offset="0.438836" stop-color="#65CAFF"/>
<stop offset="1" stop-color="#65C9FF"/>
</linearGradient>
</defs>
</svg>
