<svg width="32" height="34" viewBox="0 0 32 34" fill="none" xmlns="http://www.w3.org/2000/svg">
<g filter="url(#filter0_d_46_417)">
<path d="M15.9914 31.0826C16.1013 31.0778 20.0328 28.6592 20.496 28.3788L26.7455 24.59L30.7564 22.1238L30.7554 23.0189C30.6113 23.1475 30.4278 23.2419 30.2626 23.3422L29.2705 23.9329L26.3288 25.7171L24.2713 26.9715L19.7546 29.7107L16.0203 32L15.9912 31.9947C16.0102 31.8869 16.0002 31.7574 16.0007 31.6469C16.0016 31.4598 16.0073 31.2692 15.9914 31.0826Z" fill="#571900"/>
<path d="M1.24561 22.9752L1.2478 22.9589C1.28038 22.6931 1.25722 22.4013 1.25706 22.1324C1.4609 22.231 1.64746 22.3541 1.84077 22.471L2.72958 23.0162L3.78719 23.6449L4.74834 24.2386L12.6792 29.0666L15.0628 30.5221L15.6827 30.9002C15.7797 30.96 15.886 31.0431 15.9915 31.0826C16.0075 31.2692 16.0018 31.4598 16.0009 31.6469C16.0003 31.7574 16.0104 31.8869 15.9914 31.9947C15.8701 31.9457 15.7508 31.8493 15.6401 31.7779L15.0367 31.4022L12.38 29.7735L8.51611 27.4211L5.03458 25.299L2.76597 23.9334C2.27749 23.6418 1.76063 23.3592 1.29505 23.0337C1.272 23.0176 1.25896 22.9995 1.24561 22.9752Z" fill="#290700"/>
<path d="M2.63843 13.9389C2.81361 14.009 2.97962 14.1216 3.14022 14.2203L3.79061 14.6132C4.13282 14.8199 4.52441 15.0107 4.83917 15.2555L4.83547 16.5227L4.83877 19.6829L4.83902 20.5829C4.8391 20.7353 4.82461 20.9009 4.84607 21.0507L4.84072 21.6855L2.63859 20.3618L2.6522 19.6844L2.63843 13.9389Z" fill="#441701"/>
<path d="M10.5698 4.69091C10.7439 4.52259 11.0178 4.39752 11.2263 4.26988L12.7924 3.31543L14.6015 2.20166L15.5236 1.62569C15.6976 1.51982 15.873 1.40174 16.0607 1.32216C16.3212 1.42259 16.5943 1.63677 16.8345 1.78501L17.8919 2.41875C17.614 2.67495 17.3392 2.93315 17.0923 3.21987C16.9386 3.39832 16.806 3.60304 16.6446 3.77283L16.2418 4.35908C15.9621 4.80998 15.7246 5.28628 15.5073 5.76967L14.2015 6.56421C14.1583 6.54403 14.1065 6.49453 14.0666 6.46504L13.7976 6.26875L13.1311 5.82391L12.6279 5.53448C12.237 5.32458 11.831 5.14353 11.4197 4.97781C11.1469 4.86788 10.8581 4.75181 10.5698 4.69091Z" fill="#F09806"/>
<path d="M13.1311 5.82389C13.5568 5.518 14.0497 5.27269 14.5003 5.00276L16.2791 3.97007C16.4002 3.90742 16.5191 3.82299 16.6446 3.77281L16.2418 4.35907C15.9621 4.80997 15.7246 5.28626 15.5072 5.76965L14.2015 6.5642C14.1582 6.54402 14.1065 6.49452 14.0666 6.46503L13.7975 6.26874L13.1311 5.82389Z" fill="#C24C00"/>
<path d="M29.4016 19.7147L30.425 20.3508C30.5047 20.3993 30.7233 20.5065 30.7521 20.6011L30.7559 20.6334L30.7565 22.1238L26.7456 24.59L20.4961 28.3788C20.0329 28.6592 16.1014 31.0778 15.9915 31.0826L15.9911 29.5825L14.457 28.6535C14.617 28.569 14.8528 28.531 15.0326 28.4948L15.1815 28.5656C15.4346 28.5899 15.7793 28.6254 16.0087 28.4988C16.1479 28.4949 16.9009 27.9697 17.073 27.8623C17.3653 27.68 17.7096 27.5137 17.9738 27.2945L27.5395 21.4843L27.6303 21.4228L29.3972 20.3484C29.4155 20.2873 29.4053 20.2107 29.4047 20.1461L29.4016 19.7147Z" fill="#782C04"/>
<path d="M29.4016 19.7147L30.425 20.3508C30.5047 20.3993 30.7233 20.5065 30.7521 20.6011L30.7559 20.6334C30.6765 20.6596 30.6222 20.7141 30.5543 20.7599L30.1837 20.9962L28.5354 22.0016L22.8617 25.4575L19.267 27.6236L17.1998 28.8833L16.2807 29.4319C16.1905 29.483 16.0912 29.5589 15.9911 29.5825L14.457 28.6535C14.617 28.569 14.8528 28.531 15.0326 28.4948L15.1815 28.5656C15.4346 28.5899 15.7793 28.6254 16.0087 28.4988C16.1479 28.4949 16.9009 27.9697 17.073 27.8623C17.3653 27.68 17.7096 27.5137 17.9738 27.2945L27.5395 21.4843L27.6303 21.4228L29.3972 20.3484C29.4155 20.2873 29.4053 20.2107 29.4047 20.1461L29.4016 19.7147Z" fill="#8F4107"/>
<path d="M30.425 20.3508C30.5047 20.3993 30.7233 20.5065 30.7521 20.6011L30.7559 20.6334C30.6765 20.6596 30.6222 20.7141 30.5543 20.7598L30.1837 20.9962L28.5354 22.0016L22.8617 25.4575L19.267 27.6236L17.1998 28.8833L16.2807 29.4319C16.1905 29.483 16.0912 29.5589 15.9911 29.5825L14.457 28.6535C14.617 28.569 14.8528 28.531 15.0326 28.4948L15.1815 28.5655C15.2742 28.6678 15.4054 28.7406 15.5204 28.8162C15.6805 28.921 15.8404 29.0335 16.0103 29.1219C16.1951 29.0401 16.3673 28.9186 16.5412 28.8158L17.5927 28.1898L19.6645 26.9325L20.9487 26.1314L27.6959 22.0239L29.7767 20.7549C29.99 20.6201 30.2227 20.5006 30.425 20.3508Z" fill="#C06B16"/>
<path d="M5.62012 4.55001C5.74165 4.50289 5.89908 4.48692 6.02767 4.46191C6.93251 4.286 7.92082 4.23516 8.83603 4.35826C8.95981 4.36934 9.08527 4.38266 9.2077 4.40401C9.23428 4.40864 9.29109 4.41182 9.31086 4.4245C9.59319 4.45732 9.86915 4.50879 10.1449 4.57765C10.2863 4.61292 10.4258 4.67124 10.5699 4.69091C10.8582 4.75181 11.147 4.86788 11.4198 4.97781C11.8312 5.14353 12.2371 5.32458 12.628 5.53448L13.1312 5.8239L13.7977 6.26875L14.0667 6.46504C14.1067 6.49453 14.1584 6.54403 14.2016 6.56421L14.3478 6.69508L14.8411 7.14699L15.0056 7.29744L14.9938 7.34621C15.0738 7.46914 15.218 7.58245 15.3219 7.68775C15.5541 7.92312 15.7796 8.21135 15.926 8.50842C15.9306 8.60465 16.0089 8.69935 16.0493 8.78614C16.1837 9.0745 16.3487 9.46723 16.34 9.78905L16.3378 9.80922C16.3048 9.81848 16.1525 9.85172 16.1384 9.8721C16.0767 9.93027 15.9752 9.98649 15.8923 10.0064L15.8801 10.0051C15.8405 10.0125 15.8098 10.0214 15.7729 10.0365L15.5956 10.1027C15.3484 10.2069 15.0891 10.3198 14.8307 10.3904C14.5946 10.455 14.322 10.48 14.079 10.5008C13.79 10.5255 13.5019 10.5433 13.2118 10.5298C12.5343 10.4983 11.8902 10.3513 11.2395 10.1712L10.4119 9.84554L10.0776 9.66363C9.62246 9.46064 9.18303 9.1193 8.77965 8.82807C8.18763 8.39273 7.68879 7.89279 7.22213 7.32815C6.6792 6.65065 6.20911 5.93775 5.82794 5.15681C5.73779 4.97212 5.6356 4.78091 5.58228 4.58204L5.62012 4.55001Z" fill="url(#paint0_linear_46_417)"/>
<path d="M10.0479 6.21251L11.9707 7.11945L13.7239 8.07012L15.7362 9.39051L15.8174 9.44503L16.1935 9.72185C16.2138 9.73719 16.2605 9.78558 16.2853 9.79069C16.3031 9.79436 16.3217 9.78959 16.3398 9.78904L16.3377 9.80922C16.3047 9.81847 16.1523 9.85171 16.1383 9.87209C14.8106 9.92271 9.8915 7.91896 9.8915 7.91896C9.8915 7.91896 9.86088 6.91494 9.89906 6.77728C9.93653 6.64664 10.0497 6.35208 10.0479 6.21251Z" fill="url(#paint1_linear_46_417)"/>
<path d="M5.62012 4.55001C5.74164 4.50289 5.89908 4.48692 6.02766 4.46191C6.9325 4.286 7.92081 4.23516 8.83603 4.35826C8.9598 4.36934 9.08526 4.38266 9.2077 4.40401C9.23428 4.40864 9.29108 4.41182 9.31086 4.4245C9.59318 4.45732 9.86914 4.50879 10.1449 4.57765C10.2863 4.61292 10.4258 4.67124 10.5699 4.69091C10.8582 4.75181 11.147 4.86788 11.4198 4.97781C11.8311 5.14353 12.2371 5.32458 12.628 5.53448L13.1312 5.8239L13.7977 6.26875L14.0667 6.46504C14.1067 6.49453 14.1584 6.54403 14.2016 6.56421L14.3478 6.69508L14.8411 7.14699L15.0056 7.29744L14.9938 7.34621C15.0738 7.46914 15.218 7.58245 15.3219 7.68775C15.5541 7.92312 15.7796 8.21135 15.926 8.50842C15.9305 8.60464 16.0088 8.69935 16.0493 8.78614C16.1837 9.0745 16.3487 9.46723 16.34 9.78905C16.3218 9.7896 16.3032 9.79437 16.2854 9.79069C16.2606 9.78559 16.2139 9.7372 16.1936 9.72185L15.8175 9.44503L15.7363 9.39052L13.724 8.07012L11.9708 7.11946L10.048 6.21252L8.16825 5.45726C8.00762 5.42461 7.8448 5.35336 7.68995 5.2984L6.83743 4.99776L6.09085 4.75303C5.93539 4.70161 5.75119 4.64927 5.62012 4.55001Z" fill="url(#paint2_linear_46_417)"/>
<path d="M9.31079 4.4245C9.59312 4.45732 9.86908 4.5088 10.1449 4.57765C10.2862 4.61292 10.4257 4.67124 10.5699 4.69091C10.8581 4.75181 11.1469 4.86788 11.4198 4.97781C11.8311 5.14353 12.237 5.32458 12.628 5.53448L13.1312 5.82391L13.7976 6.26875L14.0666 6.46504C14.1066 6.49453 14.1583 6.54403 14.2016 6.56421L14.3477 6.69509L14.841 7.14699L14.8022 7.16695C14.6842 7.14489 14.5508 7.02662 14.4557 6.95277L13.8333 6.47335C13.4409 6.19558 13.0387 5.90089 12.6171 5.66973C11.9914 5.32665 11.2966 5.00188 10.6168 4.78499L9.96175 4.5913L9.58955 4.50164C9.49543 4.48136 9.39555 4.47223 9.31079 4.4245Z" fill="#98F600"/>
<path d="M22.1184 0L22.1581 0.0270013C22.2106 0.421631 22.2464 0.873191 22.213 1.26939C22.1994 2.61044 21.9861 3.9062 21.5484 5.17464C21.3605 5.73095 21.1378 6.25898 20.8389 6.7658L20.575 7.1439C20.2779 7.51035 19.9923 7.86176 19.6383 8.17666L19.3423 8.45721L18.7441 8.96014C18.1403 9.45253 17.3253 9.77831 16.5648 9.92295C16.4955 9.93616 16.4342 9.92076 16.3663 9.90497C16.3372 9.94006 16.3327 9.95969 16.3184 10.0023C16.3166 9.93612 16.3272 9.87435 16.3378 9.80922L16.34 9.78904C16.3488 9.46722 16.1838 9.0745 16.0493 8.78613C16.0089 8.69935 15.9306 8.60464 15.926 8.50842C15.7796 8.21135 15.5541 7.92311 15.3219 7.68775C15.2181 7.58245 15.0738 7.46914 14.9938 7.34621L15.0056 7.29743L14.8411 7.14699L14.3478 6.69508L14.2017 6.56421L15.5074 5.76966C15.7248 5.28627 15.9622 4.80998 16.2419 4.35908L16.6448 3.77282C16.8061 3.60304 16.9387 3.39831 17.0924 3.21986C17.3394 2.93314 17.6141 2.67495 17.892 2.41875C18.5745 1.85934 19.2629 1.33227 20.034 0.898034C20.4634 0.656229 20.9094 0.457432 21.3645 0.269959C21.5886 0.177631 21.8786 0.0306967 22.1184 0Z" fill="url(#paint3_linear_46_417)"/>
<path d="M21.53 3.48063C21.628 3.3091 21.6945 3.09901 21.7618 2.91322C21.8931 2.5507 22.0199 2.18245 22.1084 1.80682C22.1507 1.62784 22.1569 1.44457 22.2129 1.26939C22.1994 2.61044 21.9861 3.9062 21.5483 5.17464C21.3604 5.73095 21.1378 6.25898 20.8389 6.7658L20.5749 7.14389C20.2778 7.51035 19.9922 7.86175 19.6382 8.17666L19.3423 8.45721L18.7441 8.96014C18.1402 9.45253 17.3252 9.7783 16.5647 9.92295C16.4954 9.93616 16.4341 9.92076 16.3663 9.90497C16.3372 9.94006 16.3326 9.95969 16.3183 10.0023C16.3165 9.93612 16.3271 9.87435 16.3377 9.80922L16.3399 9.78904C16.5756 8.42468 20.146 6.0458 21.0121 4.49101C21.189 4.17352 21.4133 3.82364 21.53 3.48063Z" fill="url(#paint4_linear_46_417)"/>
<path d="M17.892 2.41875C18.5745 1.85934 19.2629 1.33227 20.034 0.898033C20.4634 0.656228 20.9094 0.457432 21.3645 0.269959C21.5886 0.177631 21.8786 0.0306967 22.1184 0L21.0939 1.30851C19.552 3.27551 18.0598 5.29262 16.7935 7.45094L16.3056 8.32199L16.0883 8.7667L15.926 8.50842C15.7796 8.21135 15.5541 7.92311 15.3219 7.68775C15.2181 7.58245 15.0738 7.46914 14.9938 7.3462L15.0056 7.29743L14.8411 7.14699L14.3478 6.69508L14.2017 6.56421L15.5074 5.76966C15.7248 5.28627 15.9622 4.80998 16.2419 4.35908L16.6448 3.77282C16.8061 3.60304 16.9387 3.39831 17.0924 3.21986C17.3394 2.93314 17.6141 2.67495 17.892 2.41875Z" fill="#98F600"/>
<path d="M14.3477 6.69507C14.4662 6.67074 14.59 6.64727 14.7026 6.60181C14.9086 6.51869 15.103 6.38502 15.3033 6.28574C15.2364 6.47211 15.1706 6.65947 15.1197 6.85094C15.0818 6.99363 15.0669 7.1663 15.0055 7.29743L14.841 7.14698L14.3477 6.69507Z" fill="#441701"/>
<path d="M15.5074 5.76967L15.3034 6.28575C15.1032 6.38503 14.9087 6.5187 14.7027 6.60183C14.5901 6.64729 14.4664 6.67076 14.3478 6.69509L14.2017 6.56421L15.5074 5.76967Z" fill="#290700"/>
<path d="M4.83535 16.5227C5.18104 16.6774 5.513 16.9041 5.83625 17.1008L7.2581 17.9584L11.9494 20.7655L13.2207 21.5203C13.4942 21.6831 13.7777 21.8792 14.072 21.9996L14.0716 22.3064L14.0692 26.655C14.0971 26.7186 14.0878 26.7927 14.0881 26.8609C14.0887 26.9947 14.1106 27.1697 14.0728 27.2952L14.069 27.3095L15.3868 28.1212C15.5611 28.2328 15.7523 28.3998 15.9375 28.4856C15.9621 28.4971 15.9823 28.4977 16.0086 28.4988C15.7792 28.6254 15.4345 28.5899 15.1814 28.5655L15.0325 28.4947C14.8528 28.531 14.6169 28.569 14.457 28.6535L15.9911 29.5825L15.9914 31.0826C15.8859 31.0431 15.7796 30.96 15.6826 30.9002L15.0627 30.522L12.679 29.0666L4.74822 24.2386L3.78707 23.6449L2.72946 23.0162L1.84065 22.471C1.64734 22.3541 1.46078 22.231 1.25694 22.1324C1.2571 22.4013 1.28026 22.6931 1.24768 22.9589L1.24548 22.9752C1.22423 22.9154 1.2344 22.8334 1.23416 22.7703L1.23469 22.3228L1.23815 20.6349C1.24969 20.5903 1.25216 20.5747 1.28849 20.5432C1.36681 20.4757 1.47181 20.4249 1.56083 20.3713L2.05514 20.0661L2.65208 19.6844L2.63847 20.3618L4.8406 21.6855L4.84594 21.0507C4.82448 20.9009 4.83897 20.7353 4.8389 20.5829L4.83864 19.6829L4.83535 16.5227Z" fill="#441701"/>
<path d="M2.05503 20.0661L2.65197 19.6844L2.63836 20.3618L4.84049 21.6855L4.84583 21.0507L14.0691 26.655C14.097 26.7186 14.0877 26.7927 14.088 26.8609C14.0886 26.9947 14.1105 27.1697 14.0727 27.2952L14.0689 27.3095L15.3866 28.1212C15.561 28.2328 15.7522 28.3998 15.9373 28.4856C15.962 28.4971 15.9822 28.4977 16.0085 28.4988C15.7791 28.6254 15.4344 28.5899 15.1813 28.5655L15.0324 28.4947C14.8526 28.531 14.6168 28.569 14.4568 28.6535C14.3623 28.6118 14.2693 28.5363 14.1798 28.4814L13.5263 28.0855L10.8964 26.4742L4.30838 22.4941L1.23804 20.6349C1.24958 20.5903 1.25205 20.5747 1.28838 20.5432C1.3667 20.4757 1.4717 20.4249 1.56072 20.3713L2.05503 20.0661Z" fill="#782C04"/>
<path d="M4.84592 21.0507L14.0692 26.655C14.0971 26.7186 14.0878 26.7927 14.0881 26.861C14.0887 26.9947 14.1106 27.1698 14.0728 27.2952L14.069 27.3095L4.84058 21.6855L4.84592 21.0507Z" fill="#290700"/>
<path d="M2.05503 20.0662C2.05093 20.2193 2.05413 20.3633 2.08404 20.5138C2.10907 20.6399 2.31802 20.75 2.42081 20.8127L8.02634 24.2011L11.8343 26.5399L14.071 27.903L14.7097 28.2842C14.8174 28.3484 14.9426 28.4068 15.0324 28.4948C14.8526 28.531 14.6168 28.569 14.4568 28.6536C14.3623 28.6118 14.2693 28.5363 14.1798 28.4814L13.5263 28.0855L10.8964 26.4742L4.30838 22.4941L1.23804 20.6349C1.24958 20.5903 1.25205 20.5747 1.28838 20.5433C1.3667 20.4758 1.4717 20.4249 1.56072 20.3713L2.05503 20.0662Z" fill="#8F4107"/>
<path d="M4.83539 16.5227C5.18109 16.6774 5.51305 16.9041 5.83629 17.1008L7.25815 17.9584L11.9495 20.7655L13.2207 21.5203C13.4943 21.6831 13.7778 21.8792 14.0721 21.9996L14.0717 22.3064L14.0692 26.655L4.84599 21.0507C4.82453 20.9009 4.83902 20.7353 4.83894 20.5829L4.83869 19.6829L4.83539 16.5227Z" fill="#782C04"/>
<path d="M5.59839 17.716L13.3929 22.362L13.4122 22.371L13.4194 25.4853L5.61957 20.7538C5.60044 20.6596 5.61306 20.5482 5.61326 20.4514L5.61436 19.8042L5.59839 17.716Z" fill="#8F4107"/>
<path d="M27.6302 15.042L28.3617 14.6105C28.6972 14.4052 29.0444 14.1642 29.4039 14.0052L29.4046 15.2268L29.4015 19.7147L29.4046 20.1461C29.4052 20.2107 29.4154 20.2873 29.3971 20.3484L27.6302 21.4228L27.5394 21.4843L17.9737 27.2945C17.7095 27.5137 17.3652 27.68 17.0729 27.8623C16.9008 27.9697 16.1478 28.4949 16.0086 28.4988C15.9822 28.4977 15.9621 28.4971 15.9374 28.4856C15.7523 28.3998 15.5611 28.2328 15.3867 28.1212L14.069 27.3095L14.0728 27.2952C14.1106 27.1698 14.0887 26.9947 14.0881 26.861C14.0878 26.7927 14.0971 26.7186 14.0692 26.655L14.0716 22.3064L14.072 21.9996L14.0678 21.1512C14.0675 21.0665 14.0468 20.9302 14.0913 20.8566L15.9929 21.9905L16.0141 21.9797L18.002 20.8016L27.1909 15.3014L27.6302 15.042Z" fill="#C24C00"/>
<path d="M27.1766 19.2301C27.2175 19.2876 27.1932 20.6016 27.1934 20.7813C27.1936 20.8771 27.1698 21.0736 27.2004 21.159C27.2044 21.1704 27.2505 21.2101 27.2596 21.2194L27.5395 21.4843L17.9738 27.2945C17.9425 27.0865 17.9654 26.837 17.9687 26.6255L27.1779 21.0738L27.1766 19.2301Z" fill="#571900"/>
<path d="M27.1909 15.3014L27.1894 16.3934L27.1854 16.4043C27.0981 16.4221 27.0222 16.4843 26.9457 16.5284L26.263 16.9394L24.2555 18.1587L19.6219 20.9227L18.4952 21.5986C18.3456 21.6864 18.1533 21.8245 17.9868 21.8703L18.002 20.8016L27.1909 15.3014Z" fill="#8F4107"/>
<path d="M27.6302 15.042L28.3618 14.6105C28.6973 14.4052 29.0445 14.1642 29.4039 14.0052L29.4047 15.2268L29.4016 19.7147L29.4047 20.1461C29.4052 20.2107 29.4155 20.2873 29.3972 20.3484L27.6302 21.4228L27.5395 21.4843L27.2596 21.2194C27.2504 21.2101 27.2043 21.1704 27.2003 21.159C27.1697 21.0736 27.1935 20.8771 27.1933 20.7813C27.1932 20.6016 27.2175 19.2876 27.1765 19.2301L27.1855 16.4043L27.1895 16.3933L27.191 15.3014L27.6302 15.042Z" fill="#782C04"/>
<path d="M27.1895 16.3933L27.6339 16.1519C27.6328 16.2146 27.628 16.2788 27.6373 16.3408L27.6302 21.4228L27.5395 21.4843L27.2596 21.2194C27.2504 21.2101 27.2043 21.1704 27.2003 21.159C27.1697 21.0736 27.1935 20.8771 27.1933 20.7813C27.1932 20.6016 27.2175 19.2876 27.1765 19.2301L27.1855 16.4043L27.1895 16.3933Z" fill="#441701"/>
<path d="M27.6301 15.042L28.3617 14.6105C28.6972 14.4052 29.0444 14.1642 29.4039 14.0052L29.4046 15.2268L28.1177 16.0174C27.9558 16.1213 27.7884 16.2212 27.6373 16.3408C27.628 16.2788 27.6327 16.2146 27.6338 16.1519L27.1895 16.3933L27.1909 15.3014L27.6301 15.042Z" fill="#571900"/>
<path d="M27.6301 15.042C27.6656 15.141 27.6609 16.033 27.6338 16.1519L27.1895 16.3934L27.1909 15.3014L27.6301 15.042Z" fill="#290700"/>
<path d="M26.3967 17.6432C26.4333 17.6443 26.4176 17.6379 26.4441 17.6615L26.4399 20.7077L18.7454 25.3364L18.7207 25.3426L18.699 25.3265L18.7001 22.2649C18.7451 22.2182 18.812 22.1913 18.8686 22.1599L19.1678 21.9874L20.1449 21.4032L26.3967 17.6432Z" fill="#F09806"/>
<path d="M18.002 20.8016L17.9869 21.8703C17.9859 21.9817 17.9742 22.105 17.9861 22.2149L17.9686 26.6255C17.9653 26.837 17.9424 27.0865 17.9737 27.2945C17.7095 27.5137 17.3652 27.68 17.0729 27.8623C16.9008 27.9697 16.1478 28.4949 16.0086 28.4988C15.9822 28.4977 15.9621 28.4971 15.9374 28.4856C15.7523 28.3998 15.5611 28.2328 15.3867 28.1212L14.069 27.3095L14.0728 27.2952C14.1106 27.1698 14.0887 26.9947 14.0881 26.861C14.0878 26.7927 14.0971 26.7186 14.0692 26.655L14.0716 22.3064L14.072 21.9996L14.0678 21.1512C14.0675 21.0665 14.0468 20.9302 14.0913 20.8566L15.9929 21.9905L16.0141 21.9797L18.002 20.8016Z" fill="#441701"/>
<path d="M14.072 21.9996L14.0678 21.1511C14.0675 21.0664 14.0468 20.9302 14.0913 20.8566L15.9929 21.9905L15.9921 23.4686C15.7272 23.2622 15.4115 23.0963 15.1241 22.9229C14.7803 22.7152 14.4315 22.4836 14.0716 22.3064L14.072 21.9996Z" fill="#290700"/>
<path d="M16.0058 24.4347C16.0271 24.3236 15.9817 23.492 16.0053 23.4622C16.0146 23.4505 16.0752 23.4232 16.0915 23.4142L16.3845 23.2509L17.6109 22.506L17.8793 22.3483C17.9005 22.3351 17.9448 22.3154 17.9589 22.2982C17.9702 22.2844 17.9799 22.2341 17.9861 22.2149L17.9686 26.6255C17.9653 26.837 17.9424 27.0865 17.9737 27.2945C17.7095 27.5137 17.3652 27.68 17.0729 27.8623C16.9008 27.9697 16.1478 28.4949 16.0086 28.4988L16.0058 24.4347Z" fill="#782C04"/>
<path d="M21.5482 5.17464L30.2961 10.6765C30.4369 10.7643 30.6381 10.8596 30.751 10.9774C30.7752 11.0547 30.7664 11.1406 30.7668 11.2209L30.7675 11.6328L30.7662 12.6055C30.7657 12.7877 30.7744 12.9762 30.7563 13.1574C30.5566 13.3473 30.2419 13.4893 30.0028 13.6319L29.4039 14.0052C29.0444 14.1642 28.6972 14.4052 28.3617 14.6105L27.6301 15.042L27.1909 15.3014L18.002 20.8016L16.014 21.9797L15.9928 21.9905L14.0913 20.8566C14.0468 20.9302 14.0675 21.0664 14.0678 21.1511L14.072 21.9996C13.7777 21.8792 13.4942 21.6831 13.2206 21.5203L11.9494 20.7655L7.25805 17.9584L5.83619 17.1008C5.51294 16.9041 5.18099 16.6774 4.83529 16.5227L4.83899 15.2555C4.52423 15.0107 4.13264 14.8199 3.79044 14.6132L3.14004 14.2203C2.97944 14.1216 2.81343 14.009 2.63825 13.9389C2.41715 13.8319 2.20529 13.692 1.99177 13.5695C1.78926 13.4533 1.4473 13.3191 1.30311 13.1355C1.21868 13.028 1.25565 12.6521 1.25542 12.5079L1.25578 11.5735C1.2562 11.3758 1.24755 11.1736 1.26996 10.977C1.31088 10.8497 1.53955 10.7546 1.65138 10.6915L7.22203 7.32814C7.68868 7.89278 8.18753 8.39272 8.77954 8.82806C9.18292 9.11929 9.62235 9.46063 10.0775 9.66362L10.4118 9.84553L11.2394 10.1712C11.8901 10.3513 12.5342 10.4983 13.2116 10.5298C13.5018 10.5432 13.7899 10.5255 14.0789 10.5008C14.3219 10.48 14.5945 10.4549 14.8306 10.3904C15.089 10.3198 15.3483 10.2068 15.5955 10.1027L15.7728 10.0365C15.8097 10.0214 15.8404 10.0125 15.88 10.0051L15.8922 10.0063C15.9751 9.98648 16.0766 9.93026 16.1383 9.87209C16.1523 9.85171 16.3047 9.81847 16.3377 9.80921C16.3271 9.87434 16.3164 9.93612 16.3183 10.0022C16.3325 9.95968 16.3371 9.94005 16.3662 9.90496C16.4341 9.92075 16.4954 9.93615 16.5647 9.92295C17.3252 9.7783 18.1401 9.45253 18.744 8.96013L19.3422 8.45721L19.6382 8.17666C19.9922 7.86175 20.2777 7.51035 20.5748 7.14389L20.8388 6.7658C21.1377 6.25897 21.3604 5.73095 21.5482 5.17464Z" fill="#F09806"/>
<path d="M20.8389 6.76581C20.9624 6.8024 21.0649 6.89385 21.1726 6.96356L21.6799 7.28396L23.383 8.36955L26.9543 10.5904L26.4521 10.8194L20.575 7.1439L20.8389 6.76581Z" fill="#F5B111"/>
<path d="M8.77951 8.82806C9.18289 9.1193 9.62232 9.46064 10.0775 9.66362L10.4117 9.84554L8.08302 11.3015L7.5223 11.6365C7.42608 11.691 7.30498 11.7346 7.22233 11.8067L6.82219 11.5684L5.5 10.8222C5.54409 10.7413 5.95266 10.5288 6.05881 10.4648L7.98314 9.31378C8.23779 9.15965 8.52251 9.01793 8.7608 8.84209L8.77951 8.82806Z" fill="#C24C00"/>
<path d="M10.0776 9.66362L10.4118 9.84553L8.0831 11.3014L7.52238 11.6365C7.42616 11.691 7.30505 11.7346 7.2224 11.8067L6.82227 11.5684L10.0776 9.66362Z" fill="#290700"/>
<path d="M20.5749 7.14389L26.4521 10.8194L25.1999 11.5508L24.83 11.7734L19.3423 8.45721L19.6383 8.17666C19.9923 7.86175 20.2778 7.51035 20.5749 7.14389Z" fill="#782C04"/>
<path d="M19.6383 8.17667C19.8187 8.25019 19.9926 8.36668 20.1589 8.46885L20.8779 8.90832L23.2421 10.3473L24.6992 11.2257C24.8578 11.3234 25.0678 11.4228 25.1999 11.5509L24.83 11.7734L19.3423 8.45722L19.6383 8.17667Z" fill="#290700"/>
<path d="M30.2961 10.6765C30.437 10.7643 30.6382 10.8596 30.7511 10.9774C30.6227 11.0143 30.4739 11.1386 30.3565 11.2075L28.4686 12.349L18.9795 18.0928L16.6906 19.4645L16.2437 19.7361C16.1669 19.7846 16.077 19.856 15.9922 19.8858C15.6373 19.6088 15.2141 19.401 14.8298 19.1656L12.1034 17.5243L4.41195 12.8704L2.05902 11.4259L1.53764 11.1084C1.45843 11.0612 1.36301 10.9865 1.27002 10.977C1.31094 10.8497 1.53961 10.7546 1.65144 10.6915L3.64424 11.8896C3.64424 11.8896 3.90639 12.0634 4.03012 12.1403L4.57588 12.4876L7.36542 14.1711L10.3454 15.9911L11.8842 16.8984L15.244 18.9407L16.0289 19.3802C16.0289 19.3802 16.6756 18.9812 16.8379 18.8893L17.8413 18.2835L20.0301 16.9698L27.3662 12.5064L28.7263 11.6424L29.35 11.2945L29.9553 10.9107C30.0678 10.8395 30.2129 10.7811 30.2961 10.6765Z" fill="#F5B111"/>
<path d="M19.3423 8.45721L24.83 11.7734L16.0103 16.9848L12.8553 15.1518L9.0041 12.8622L7.69752 12.0924C7.55349 12.0075 7.34406 11.9141 7.22241 11.8067C7.30506 11.7346 7.42617 11.691 7.52239 11.6365L8.08311 11.3015L10.4118 9.84554L11.2394 10.1712L8.4316 11.8267C8.51926 11.9188 8.67533 11.9886 8.7848 12.0556L9.5346 12.517L12.5559 14.3749L16.034 16.384L23.5573 11.9039C23.4962 11.8426 23.3936 11.7985 23.3189 11.7532L22.7661 11.4162L20.0963 9.79439C19.6465 9.52249 19.1736 9.26206 18.7441 8.96014L19.3423 8.45721Z" fill="#441701"/>
<path d="M15.9923 19.8858C16.0771 19.856 16.167 19.7846 16.2438 19.7361L16.6907 19.4645L18.9796 18.0928L28.4687 12.349L30.3566 11.2075C30.474 11.1386 30.6228 11.0143 30.7512 10.9774C30.7753 11.0547 30.7665 11.1406 30.7669 11.2209L30.7676 11.6328L30.7664 12.6055C30.7658 12.7877 30.7746 12.9762 30.7565 13.1574C30.5567 13.3473 30.2421 13.4893 30.003 13.6319L29.404 14.0052C29.0446 14.1642 28.6974 14.4052 28.3618 14.6105L27.6303 15.042L27.1911 15.3014L18.0022 20.8016L16.0142 21.9797C15.9716 21.914 16.0025 21.6873 16.003 21.597L16.0045 20.4983C16.0049 20.3029 16.0266 20.0771 15.9923 19.8858Z" fill="#C24C00"/>
<path d="M1.26996 10.977C1.36295 10.9865 1.45837 11.0612 1.53758 11.1084L2.05896 11.4259L4.41189 12.8704L12.1033 17.5243L14.8297 19.1656C15.2141 19.401 15.6372 19.6088 15.9921 19.8858C16.0265 20.0771 16.0047 20.3029 16.0044 20.4983L16.0029 21.597C16.0023 21.6873 15.9714 21.914 16.014 21.9797L15.9928 21.9905L14.0913 20.8566C14.0468 20.9302 14.0675 21.0665 14.0678 21.1512L14.072 21.9996C13.7777 21.8792 13.4942 21.6831 13.2207 21.5203L11.9494 20.7655L7.25805 17.9584L5.83619 17.1008C5.51295 16.9041 5.18099 16.6774 4.83529 16.5227L4.83899 15.2555C4.52423 15.0107 4.13264 14.8199 3.79044 14.6132L3.14004 14.2203C2.97944 14.1216 2.81343 14.009 2.63825 13.9389C2.41715 13.8319 2.20529 13.692 1.99177 13.5695C1.78926 13.4533 1.4473 13.3191 1.30311 13.1355C1.21868 13.028 1.25565 12.6521 1.25542 12.5079L1.25578 11.5735C1.2562 11.3758 1.24755 11.1736 1.26996 10.977Z" fill="#782C04"/>
<path d="M4.83914 15.2555L7.17123 16.6586L11.204 19.109L13.3828 20.4216C13.6099 20.563 13.8833 20.692 14.0915 20.8566C14.047 20.9302 14.0676 21.0664 14.0679 21.1511L14.0721 21.9996C13.7778 21.8792 13.4943 21.6831 13.2208 21.5203L11.9495 20.7655L7.2582 17.9584L5.83635 17.1008C5.5131 16.9041 5.18114 16.6774 4.83545 16.5227L4.83914 15.2555Z" fill="#571900"/>
<path d="M18.7441 8.96014C19.1736 9.26206 19.6465 9.52249 20.0964 9.79439L22.7661 11.4162L23.319 11.7532C23.3936 11.7985 23.4962 11.8426 23.5573 11.9039L16.0341 16.384L12.556 14.3749L9.53464 12.517L8.78484 12.0556C8.67537 11.9886 8.5193 11.9188 8.43164 11.8267L11.2395 10.1712C11.8902 10.3513 12.5343 10.4983 13.2117 10.5298C13.5019 10.5433 13.79 10.5255 14.079 10.5008C14.3219 10.48 14.5946 10.455 14.8307 10.3904C15.0891 10.3198 15.3484 10.2069 15.5956 10.1027L15.7729 10.0365C15.8098 10.0214 15.8405 10.0125 15.8801 10.0051L15.8923 10.0064C15.9752 9.98649 16.0767 9.93027 16.1384 9.8721C16.1524 9.85172 16.3048 9.81848 16.3378 9.80922C16.3271 9.87435 16.3165 9.93613 16.3184 10.0023C16.3326 9.95969 16.3372 9.94006 16.3663 9.90497C16.4342 9.92076 16.4955 9.93616 16.5648 9.92296C17.3252 9.77831 18.1402 9.45254 18.7441 8.96014Z" fill="#782C04"/>
<path d="M16.1382 9.87209C16.1523 9.85172 16.3047 9.81848 16.3376 9.80922C16.327 9.87434 16.3164 9.93612 16.3182 10.0023L16.3266 10.063L16.3583 10.0536C16.3912 10.0435 16.4033 10.0315 16.4313 10.0132L16.5494 9.94851L20.6165 12.3742L19.3579 13.0813L17.0759 14.3608L16.2679 14.8139C16.1836 14.8602 16.0707 14.9437 15.9772 14.9613L11.585 12.34C11.8932 12.1278 12.2397 11.9529 12.5622 11.7619L14.1126 10.8342C14.3345 10.7011 14.5853 10.581 14.794 10.4314L14.8595 10.3881L15.5942 10.7816L15.5954 10.1027L15.7727 10.0365C15.8097 10.0214 15.8404 10.0125 15.8799 10.0051L15.8922 10.0064C15.975 9.98648 16.0766 9.93027 16.1382 9.87209Z" fill="#8F4107"/>
<path d="M15.5954 11.6317L15.6053 12.2595C15.6057 12.3602 15.5927 12.4896 15.6148 12.5867C15.6267 12.639 15.6666 12.6931 15.7059 12.7283C15.7568 12.7736 15.8228 12.7978 15.885 12.8236L15.9287 12.8267C16.0542 12.8329 16.158 12.8178 16.2513 12.7257C16.3667 12.6119 16.3184 12.2589 16.3186 12.0994L16.3404 12.1039C16.5372 12.1466 16.7779 12.2394 16.8873 12.421C16.9418 12.5117 16.9563 12.6297 16.9294 12.7314C16.8846 12.9016 16.7218 13.0485 16.574 13.1332C16.3197 13.2789 15.9373 13.3351 15.6562 13.2549L15.6265 13.2459L15.4985 13.2067C15.3166 13.1392 15.1454 13.0297 15.0672 12.845C15.0294 12.7559 15.0288 12.6414 15.0668 12.5525C15.164 12.3246 15.3818 12.2256 15.5962 12.1366L15.5954 11.6317Z" fill="#441701"/>
<path d="M16.1383 9.87209C16.1524 9.85172 16.3048 9.81848 16.3377 9.80922C16.3271 9.87434 16.3165 9.93612 16.3183 10.0023L16.3267 10.063L16.3185 12.0994C16.3183 12.2589 16.3666 12.6119 16.2512 12.7257C16.1579 12.8178 16.0541 12.8329 15.9286 12.8267L15.8849 12.8236C15.8227 12.7978 15.7567 12.7736 15.7058 12.7283C15.6665 12.6931 15.6266 12.639 15.6147 12.5866C15.5926 12.4896 15.6056 12.3602 15.6052 12.2595L15.5953 11.6316L15.5942 10.7816L15.5955 10.1027L15.7728 10.0365C15.8097 10.0214 15.8405 10.0125 15.88 10.0051L15.8922 10.0064C15.9751 9.98648 16.0766 9.93027 16.1383 9.87209Z" fill="#0DC801"/>
<path d="M15.5955 10.1027L15.7728 10.0365C15.8097 10.0214 15.8405 10.0125 15.88 10.0051L15.8849 12.8236C15.8227 12.7978 15.7567 12.7736 15.7058 12.7283C15.6665 12.6931 15.6266 12.639 15.6147 12.5866C15.5926 12.4896 15.6056 12.3602 15.6052 12.2595L15.5953 11.6316L15.5942 10.7816L15.5955 10.1027Z" fill="#054F01"/>
</g>
<defs>
<filter id="filter0_d_46_417" x="0" y="0" width="32" height="33.6842" filterUnits="userSpaceOnUse" color-interpolation-filters="sRGB">
<feFlood flood-opacity="0" result="BackgroundImageFix"/>
<feColorMatrix in="SourceAlpha" type="matrix" values="0 0 0 0 0 0 0 0 0 0 0 0 0 0 0 0 0 0 127 0" result="hardAlpha"/>
<feOffset dy="1.68421"/>
<feComposite in2="hardAlpha" operator="out"/>
<feColorMatrix type="matrix" values="0 0 0 0 0 0 0 0 0 0 0 0 0 0 0 0 0 0 0.7 0"/>
<feBlend mode="normal" in2="BackgroundImageFix" result="effect1_dropShadow_46_417"/>
<feBlend mode="normal" in="SourceGraphic" in2="effect1_dropShadow_46_417" result="shape"/>
</filter>
<linearGradient id="paint0_linear_46_417" x1="9.53132" y1="9.30331" x2="4.65207" y2="4.37441" gradientUnits="userSpaceOnUse">
<stop stop-color="#0D5403"/>
<stop offset="1" stop-color="#199102"/>
</linearGradient>
<linearGradient id="paint1_linear_46_417" x1="9.66925" y1="7.35407" x2="16.3931" y2="9.21521" gradientUnits="userSpaceOnUse">
<stop stop-color="#1D9701"/>
<stop offset="1" stop-color="#56E500"/>
</linearGradient>
<linearGradient id="paint2_linear_46_417" x1="6.16567" y1="3.52118" x2="16.6486" y2="9.16009" gradientUnits="userSpaceOnUse">
<stop stop-color="#31C801"/>
<stop offset="1" stop-color="#81F500"/>
</linearGradient>
<linearGradient id="paint3_linear_46_417" x1="22.3306" y1="4.62369" x2="15.9505" y2="4.84066" gradientUnits="userSpaceOnUse">
<stop stop-color="#1EB200"/>
<stop offset="1" stop-color="#62EB00"/>
</linearGradient>
<linearGradient id="paint4_linear_46_417" x1="20.8301" y1="6.68077" x2="18.7517" y2="5.43167" gradientUnits="userSpaceOnUse">
<stop stop-color="#025C01"/>
<stop offset="1" stop-color="#0B8B00"/>
</linearGradient>
</defs>
</svg>
