<svg width="25" height="25" viewBox="0 0 25 25" fill="none" xmlns="http://www.w3.org/2000/svg">
<path d="M10.0979 23.4404C10.3112 23.4486 10.5243 23.4065 10.7343 23.3735L12.1085 23.0917C14.315 22.5446 16.4453 21.6597 18.283 20.3065L19.0014 19.7206C20.0972 18.8212 21.0971 17.8325 21.9085 16.6638L22.5309 15.6717C22.7411 15.3225 22.9204 14.9549 23.091 14.5851C23.4912 13.7174 23.804 12.8052 23.9861 11.8652C24.0452 11.5603 24.0807 11.2479 24.1165 10.9395L24.1623 10.5724C24.175 10.497 24.2167 10.4759 24.1918 10.3888L24.1835 10.362L24.2037 10.3369L24.2018 10.463L24.1998 10.4896C24.2339 10.5498 24.2216 10.6939 24.2261 10.7696C24.2031 11.5032 24.1294 12.2327 23.9567 12.9476C23.7928 13.6262 23.5685 14.3013 23.2876 14.9406C22.7168 16.2401 21.9216 17.4589 21.0414 18.5684C20.594 19.1323 20.1188 19.6839 19.5936 20.177C18.9688 20.7637 18.2899 21.316 17.5684 21.7804C15.5429 23.0843 13.1817 23.8447 10.7787 23.9933C10.2965 24.0231 9.80325 24.0156 9.32034 24C8.5753 23.9761 7.81738 23.8662 7.08728 23.7202C6.81605 23.6659 6.53676 23.6152 6.27344 23.5295C6.31046 23.4792 6.34918 23.4866 6.4087 23.4927L7.4715 23.5935C7.92294 23.6171 8.37966 23.6048 8.83066 23.5789C9.25813 23.5544 9.67686 23.5208 10.0979 23.4404Z" fill="url(#paint0_linear_755_2302)"/>
<path d="M10.0977 23.4404L10.9068 23.1819L11.8695 22.8011C12.8453 22.3842 13.7623 21.8537 14.6367 21.2546C15.4131 20.7228 16.148 20.1488 16.8385 19.5089L17.4337 18.9533C17.5129 18.8797 17.6243 18.8049 17.6851 18.7165C17.7356 18.643 17.8343 18.5322 17.9086 18.4812L17.9411 18.4594C17.9589 18.4399 17.9678 18.4112 17.9871 18.3897L19.3933 16.7139C19.9419 16.0031 20.4614 15.279 20.913 14.5017C21.2419 13.9357 21.5251 13.3399 21.7859 12.74C22.0587 12.1125 22.3041 11.4855 22.498 10.829C22.6513 10.3102 22.7945 9.78943 22.8768 9.25402C22.9732 8.62621 22.9951 7.9842 22.9832 7.34954C22.9724 6.77518 22.954 6.18638 22.8449 5.62114C22.7874 5.32292 22.73 5.02464 22.6429 4.73339C22.6067 4.6122 22.5026 4.41335 22.5051 4.29451L22.5067 4.26941C23.5791 5.86194 24.1123 7.74575 24.2181 9.64984L24.2386 10.3896C24.2386 10.5137 24.247 10.6474 24.2259 10.7696C24.2213 10.6939 24.2337 10.5498 24.1996 10.4896L24.2016 10.463L24.2035 10.3369L24.1833 10.362L24.1916 10.3888C24.2165 10.4759 24.1748 10.4969 24.1621 10.5724L24.1163 10.9395C24.0805 11.2479 24.045 11.5603 23.9859 11.8652C23.8037 12.8052 23.491 13.7173 23.0908 14.5851C22.9202 14.9549 22.7409 15.3225 22.5306 15.6717L21.9083 16.6638C21.0969 17.8325 20.097 18.8211 19.0012 19.7206L18.2828 20.3065C16.4451 21.6597 14.3148 22.5446 12.1082 23.0917L10.734 23.3735C10.524 23.4065 10.311 23.4486 10.0977 23.4404Z" fill="url(#paint1_linear_755_2302)"/>
<path d="M21.5615 14.8776C21.6055 14.899 21.6484 14.9172 21.6959 14.9295C21.8668 14.9737 21.9446 14.8533 22.0296 14.7259C22.0502 14.6951 22.068 14.6553 22.0999 14.6357L22.1156 14.6973C22.0735 14.8021 22.0245 14.9527 21.9166 15.0064C21.8517 15.0386 21.7648 15.0276 21.7006 14.9994C21.66 14.9815 21.5772 14.9387 21.5636 14.893L21.5615 14.8776Z" fill="#CE6704"/>
<path d="M21.5616 14.8776L21.5554 14.857C21.5201 14.8278 21.4881 14.7978 21.4581 14.763C21.3826 14.6756 21.3361 14.551 21.3509 14.4343C21.3699 14.2845 21.4716 14.1482 21.5935 14.0655C21.693 13.9979 21.8126 13.9464 21.9341 13.9751C22.0206 13.9955 22.1051 14.0538 22.1499 14.1311C22.2177 14.2481 22.1556 14.3878 22.1221 14.5066C22.1321 14.5372 22.1272 14.5421 22.1204 14.5724L22.1428 14.595L22.1157 14.6973L22.0999 14.6357C22.0681 14.6553 22.0503 14.6951 22.0297 14.7259C21.9446 14.8533 21.8668 14.9737 21.696 14.9295C21.6485 14.9172 21.6056 14.899 21.5616 14.8776Z" fill="url(#paint2_linear_755_2302)"/>
<path d="M22.4379 5.51074C22.4717 5.49574 22.5054 5.47909 22.5419 5.47183C22.5677 5.46672 22.5587 5.47044 22.5889 5.46039C22.6468 5.44107 22.7095 5.4322 22.7696 5.42031L22.7777 5.37195L22.7537 5.33981C22.7641 5.28679 22.7336 5.27609 22.7455 5.22734C22.7316 5.20301 22.7247 5.18925 22.7223 5.16056L22.7216 5.13896C22.6899 5.09137 22.7216 5.11541 22.7134 5.08272C22.7053 5.05023 22.6895 5.05509 22.6895 5.01042C22.6669 4.97655 22.675 4.97623 22.6813 4.93811C22.6595 4.91234 22.6536 4.89916 22.6492 4.86574C22.6455 4.83769 22.6383 4.82625 22.6332 4.80147L22.6292 4.7694C22.6129 4.74761 22.6184 4.75831 22.6088 4.72965L22.5931 4.68102C22.5828 4.65348 22.5721 4.63051 22.5688 4.60068C22.5655 4.57106 22.5664 4.5663 22.551 4.53763L22.5368 4.51225L22.5288 4.48821C22.5111 4.45871 22.5127 4.46947 22.5127 4.43197L22.4967 4.40787L22.5045 4.38377C22.4868 4.35729 22.4792 4.33065 22.4645 4.30343C22.4458 4.26888 22.4484 4.27013 22.4484 4.23112C22.4219 4.20461 22.4149 4.17193 22.3921 4.14275L22.3438 4.07848C22.327 4.0545 22.3106 4.03679 22.2956 4.0107L22.2474 3.93386L22.2113 3.88968C22.1853 3.84559 22.216 3.8748 22.1792 3.84523C22.1541 3.82502 22.1611 3.83578 22.1471 3.80532C22.1351 3.77903 22.1229 3.76258 22.1028 3.74105C22.0729 3.70901 22.0588 3.67726 22.0312 3.64483L22.0143 3.626L22.0476 3.62369L22.5069 4.26943L22.5054 4.29453C22.5028 4.41336 22.6069 4.61222 22.6432 4.73341C22.7302 5.02465 22.7876 5.32294 22.8452 5.62116C22.9542 6.1864 22.9726 6.7752 22.9834 7.34956C22.9954 7.98421 22.9735 8.62623 22.877 9.25403C22.7948 9.78945 22.6515 10.3102 22.4983 10.829C22.3044 11.4856 22.059 12.1125 21.7862 12.74C21.5253 13.3399 21.2422 13.9357 20.9133 14.5017C20.4616 15.279 19.9421 16.0031 19.3935 16.7139L17.9873 18.3897C17.9681 18.4112 17.9591 18.4399 17.9413 18.4594L17.9088 18.4812C17.8345 18.5322 17.7359 18.643 17.6854 18.7165C17.6246 18.8049 17.5131 18.8797 17.4339 18.9533L16.8388 19.5089C16.1482 20.1488 15.4133 20.7228 14.637 21.2547C13.7626 21.8537 12.8456 22.3842 11.8698 22.8011L10.9071 23.1819L10.0979 23.4404C9.67688 23.5208 9.25815 23.5544 8.83068 23.5789C8.37968 23.6048 7.92297 23.6171 7.47152 23.5935L6.40872 23.4927C6.34921 23.4866 6.31048 23.4792 6.27346 23.5295L6.26848 23.5296C6.10369 23.4934 5.93857 23.4267 5.77776 23.3751C4.71304 23.0332 3.60065 22.4964 2.80615 21.6919C2.88154 21.6853 2.96053 21.7427 3.02718 21.7734C4.63629 22.514 6.42042 22.2195 8.02728 21.6405C9.31265 21.1773 10.5426 20.5714 11.74 19.9173L14.6312 18.1565L16.24 17.0149L17.5422 15.9264C18.332 15.2353 19.1083 14.5 19.8131 13.7215L21.1847 12.0485L22.2021 10.5952C22.352 10.3602 22.509 10.1228 22.6255 9.86928C22.7167 9.67106 22.7501 9.442 22.7792 9.22743C22.8183 8.93981 22.843 8.6628 22.8243 8.37284C22.8045 8.06494 22.725 7.75737 22.6374 7.46262C22.5997 7.33555 22.5663 7.20135 22.5193 7.07785L22.0627 5.81751C22.0444 5.7731 22.0088 5.72445 22.0083 5.67724C22.0954 5.61467 22.2193 5.59185 22.3218 5.56104C22.3652 5.54802 22.4055 5.54362 22.4379 5.51074Z" fill="url(#paint3_linear_755_2302)"/>
<path d="M10.1885 22.6087L10.1749 22.6331L10.1624 22.6235C10.1312 22.5857 10.1068 22.5252 10.085 22.4807C9.97764 22.2613 9.9305 22.023 9.96058 21.779C9.99638 21.4884 10.1887 21.2127 10.4166 21.038C10.5944 20.9017 10.8407 20.7668 11.0721 20.8008C11.2463 20.8264 11.3886 20.9172 11.4921 21.0597C11.6096 21.2215 11.6964 21.4972 11.6638 21.6973L11.6412 21.673C11.6406 21.5968 11.646 21.4672 11.5893 21.4104C11.5065 21.3275 11.4189 21.2807 11.3129 21.231L11.3372 21.223V21.2142C11.1404 21.1341 10.9167 21.1343 10.7198 21.2212C10.4636 21.3342 10.3496 21.6067 10.2565 21.8538C10.1638 22.0999 10.1571 22.3509 10.1885 22.6087Z" fill="#9B2500"/>
<path d="M10.1888 22.6087C10.1574 22.3509 10.1642 22.0999 10.2568 21.8538C10.3499 21.6067 10.4639 21.3342 10.7201 21.2212C10.917 21.1344 11.1407 21.1342 11.3375 21.2142V21.223L11.3132 21.231C11.4192 21.2807 11.5068 21.3275 11.5896 21.4104C11.6463 21.4672 11.641 21.5968 11.6415 21.673C11.6423 21.8036 11.6482 21.9311 11.6159 22.0587C11.577 22.2127 11.5305 22.3644 11.4407 22.4975C11.2937 22.7201 11.1035 22.8824 10.8346 22.9356C10.6697 22.9683 10.498 22.9437 10.3573 22.8492L10.3056 22.8075C10.2676 22.7688 10.2365 22.7371 10.2175 22.6855L10.1888 22.6087Z" fill="url(#paint4_linear_755_2302)"/>
<path d="M1.20508 19.4602C1.31563 19.4761 1.48215 19.6391 1.57419 19.7102C1.69184 19.8011 1.81142 19.8907 1.94032 19.9651C2.59936 20.3458 3.47548 20.4869 4.22827 20.4934C5.29268 20.5024 6.39661 20.3038 7.4007 19.9532C8.10242 19.7082 8.77422 19.374 9.42449 19.0168C10.7534 18.2867 12.0051 17.4011 13.152 16.4097L13.7545 15.885C14.2606 15.4133 14.7307 14.9015 15.1902 14.385C15.6285 13.8923 16.0634 13.3896 16.4539 12.8578L18.3695 10.0312C19.0032 9.02954 19.605 8.00119 20.3734 7.09332C20.6967 6.71128 21.0592 6.33308 21.4597 6.03074L21.8125 5.78972C21.872 5.75209 21.9439 5.71793 21.994 5.66876L21.8901 5.4764L21.902 5.46033L21.9261 5.48041C21.9262 5.50827 21.9331 5.51213 21.9462 5.53665L21.9744 5.58887C21.9958 5.62326 22.0006 5.62142 22.0386 5.6292C22.0626 5.6166 22.0852 5.60507 22.111 5.59649L22.2796 5.54886C22.3145 5.53058 22.3126 5.53279 22.3519 5.53279L22.368 5.51673C22.3932 5.51226 22.412 5.5103 22.4379 5.51075C22.4056 5.54362 22.3652 5.54803 22.3219 5.56104C22.2194 5.59186 22.0955 5.61468 22.0084 5.67724C22.0088 5.72445 22.0445 5.77311 22.0627 5.81752L22.5194 7.07786C22.5663 7.20136 22.5998 7.33556 22.6375 7.46262C22.725 7.75737 22.8046 8.06495 22.8244 8.37284C22.843 8.6628 22.8184 8.93982 22.7793 9.22743C22.7501 9.442 22.7168 9.67107 22.6256 9.86928C22.5091 10.1228 22.352 10.3602 22.2022 10.5952L21.1848 12.0486L19.8132 13.7215C19.1084 14.5 18.3321 15.2353 17.5423 15.9264L16.2401 17.0149L14.6313 18.1565L11.7401 19.9173C10.5426 20.5714 9.31272 21.1773 8.02735 21.6405C6.42049 22.2195 4.63636 22.514 3.02725 21.7734C2.9606 21.7427 2.88161 21.6853 2.80622 21.6919L2.80339 21.691C2.64451 21.5532 2.50247 21.3888 2.36345 21.2315C1.90474 20.7127 1.46406 20.1051 1.20508 19.4602Z" fill="url(#paint5_linear_755_2302)"/>
<path d="M17.3024 13.976C17.3419 13.9743 17.3836 13.9711 17.4228 13.9768C17.495 13.9873 17.5902 14.0276 17.6284 14.0935C17.677 14.1772 17.6708 14.3207 17.6381 14.4084L17.6305 14.4263C17.6181 14.4597 17.6071 14.4906 17.5904 14.5223L17.5815 14.5387C17.5129 14.6682 17.3878 14.7565 17.2565 14.8125C17.1979 14.8237 17.1149 14.836 17.0575 14.8168C17.0031 14.7986 16.9546 14.7417 16.9309 14.6914C16.8798 14.5832 16.8822 14.4396 16.9276 14.3298C17.0018 14.1503 17.1272 14.0494 17.3024 13.976Z" fill="#CE6704"/>
<path d="M5.90885 20.6641C6.0228 20.6559 6.14849 20.689 6.24644 20.747C6.38649 20.83 6.46882 20.9707 6.50831 21.1257C6.53843 21.244 6.51956 21.382 6.45458 21.4861C6.37559 21.6126 6.25601 21.6592 6.11867 21.6917C6.00352 21.6989 5.8933 21.6969 5.78853 21.6419C5.65928 21.574 5.57046 21.4241 5.53488 21.2868C5.49732 21.1418 5.50105 20.9581 5.58727 20.8293C5.6623 20.7173 5.7858 20.6891 5.90885 20.6641Z" fill="url(#paint6_linear_755_2302)"/>
<path d="M1.205 19.4602C1.07389 19.2472 0.988406 18.9649 0.904145 18.7292C0.748864 18.2948 0.648697 17.8523 0.567971 17.3988C0.508648 17.0654 0.456266 16.7301 0.433803 16.3918C0.381968 15.6114 0.447269 14.8354 0.579701 14.0659C0.792602 12.829 1.17827 11.6126 1.66795 10.4588C2.55449 8.37013 3.79834 6.48221 5.36802 4.84324C6.08857 4.09088 6.87706 3.39266 7.72934 2.79197C9.77007 1.3537 12.0826 0.345432 14.5801 0.0717939C15.2464 -0.00118688 15.911 -0.0402318 16.5754 0.076743C17.4277 0.226754 18.2222 0.62691 18.9663 1.05319L19.8146 1.55545C20.0847 1.7338 20.3354 1.93655 20.5865 2.14032C21.1207 2.57387 21.6515 3.05668 22.0476 3.62368L22.0143 3.626L22.0312 3.64483C22.0588 3.67725 22.0729 3.70901 22.1028 3.74104C22.1229 3.76258 22.1351 3.77903 22.1471 3.80532C22.1611 3.83578 22.154 3.82502 22.1792 3.84523C22.216 3.87479 22.1853 3.84558 22.2113 3.88967L22.2474 3.93386L22.2956 4.0107C22.3105 4.03679 22.327 4.0545 22.3438 4.07847L22.392 4.14274C22.4149 4.17192 22.4219 4.20461 22.4484 4.23112C22.4484 4.27013 22.4458 4.26888 22.4645 4.30342C22.4792 4.33064 22.4867 4.35728 22.5045 4.38376L22.4966 4.40787L22.5127 4.43197C22.5127 4.46947 22.5111 4.45871 22.5288 4.48821L22.5368 4.51224L22.551 4.53763C22.5664 4.5663 22.5655 4.57105 22.5688 4.60068C22.5721 4.6305 22.5828 4.65348 22.5931 4.68102L22.6088 4.72964C22.6183 4.75831 22.6129 4.74761 22.6291 4.7694L22.6332 4.80147C22.6383 4.82624 22.6455 4.83768 22.6492 4.86574C22.6536 4.89916 22.6595 4.91234 22.6813 4.93811C22.675 4.97622 22.6669 4.97654 22.6895 5.01042C22.6895 5.05508 22.7053 5.05023 22.7134 5.08272C22.7216 5.1154 22.6899 5.09137 22.7216 5.13896L22.7223 5.16055C22.7247 5.18925 22.7316 5.20301 22.7455 5.22733C22.7336 5.27608 22.7641 5.28678 22.7537 5.33981L22.7777 5.37194L22.7696 5.42031C22.7095 5.4322 22.6468 5.44107 22.5889 5.46038C22.5587 5.47044 22.5677 5.46671 22.5419 5.47182C22.5054 5.47909 22.4717 5.49573 22.4379 5.51074C22.4119 5.51029 22.3931 5.51225 22.3679 5.51672L22.3519 5.53279C22.3125 5.53279 22.3144 5.53057 22.2796 5.54885L22.111 5.59648C22.0851 5.60506 22.0626 5.6166 22.0385 5.62919C22.0005 5.62142 21.9957 5.62325 21.9743 5.58886L21.9462 5.53664C21.933 5.51212 21.9261 5.50827 21.926 5.4804L21.902 5.46032L21.89 5.47639L21.9939 5.66875C21.9438 5.71792 21.8719 5.75208 21.8124 5.78971L21.4597 6.03073C21.0591 6.33307 20.6966 6.71127 20.3733 7.09331C19.6049 8.00118 19.0031 9.02953 18.3694 10.0312L16.4539 12.8578C16.0633 13.3896 15.6284 13.8923 15.1901 14.385C14.7306 14.9015 14.2606 15.4133 13.7544 15.885L13.152 16.4097C12.005 17.4011 10.7534 18.2867 9.42442 19.0168C8.77414 19.374 8.10234 19.7082 7.40062 19.9532C6.39653 20.3038 5.2926 20.5024 4.22819 20.4934C3.47541 20.4869 2.59929 20.3458 1.94024 19.9651C1.81134 19.8907 1.69177 19.801 1.57412 19.7102C1.48208 19.6391 1.31555 19.4761 1.205 19.4602Z" fill="url(#paint7_linear_755_2302)"/>
<path d="M7.39148 16.7742L7.39511 16.732C7.45016 16.7905 7.4859 16.846 7.5234 16.9168L7.53288 16.9343C7.66563 17.1839 7.68054 17.5353 7.59609 17.8006C7.52054 18.0379 7.38068 18.3014 7.15162 18.4232C6.99467 18.5067 6.81808 18.5133 6.65027 18.458C6.59445 18.4397 6.50228 18.4073 6.47098 18.3554L6.46973 18.3423L6.48399 18.3468C6.64988 18.3976 6.80044 18.4184 6.9588 18.3275C7.22094 18.1772 7.40125 17.8025 7.47658 17.5212C7.54773 17.2555 7.52861 17.0146 7.39148 16.7742Z" fill="#FBC709"/>
<path d="M6.3219 18.2651C6.22346 18.1845 6.17227 18.0812 6.1349 17.9607C6.04521 17.6717 6.15897 17.3317 6.30062 17.0771C6.41998 16.8627 6.64612 16.6043 6.89459 16.5511C7.01684 16.525 7.14413 16.5682 7.24343 16.6383C7.00408 16.6493 6.82836 16.7295 6.66723 16.9082C6.40413 17.2001 6.26813 17.6281 6.29002 18.0186C6.29468 18.1018 6.31843 18.1827 6.3219 18.2651Z" fill="#CE6704"/>
<path d="M13.9877 12.064L14.012 11.988C14.0437 12.0369 14.0439 12.0971 14.0482 12.1538C14.0641 12.3632 14.0279 12.5823 13.9849 12.7871C13.8795 13.2886 13.6011 13.8189 13.1627 14.1026C12.8368 14.3135 12.4402 14.3944 12.0586 14.3084C11.8555 14.2627 11.6754 14.1768 11.5378 14.0168L11.5337 13.9764C11.7584 14.0475 12.0144 14.0786 12.2484 14.045L12.2773 14.0406C12.6219 13.9897 12.9248 13.8261 13.1897 13.6035C13.6138 13.2471 13.9449 12.6166 13.9877 12.064Z" fill="#FBC709"/>
<path d="M17.9198 6.31565L18.0054 6.31244C18.1045 6.31678 18.2005 6.35801 18.2628 6.43642C18.3846 6.58964 18.4177 6.82257 18.3876 7.01149C18.3428 7.2921 18.1809 7.60199 17.9486 7.77096C17.8364 7.85256 17.7437 7.90063 17.608 7.93251C17.5246 7.94038 17.4477 7.94038 17.3722 7.89844C17.2766 7.84526 17.2063 7.70759 17.1761 7.60585C17.1004 7.35117 17.1515 7.10459 17.2767 6.87488C17.4201 6.61182 17.6274 6.40168 17.9198 6.31565Z" fill="url(#paint8_linear_755_2302)"/>
<path d="M18.8314 2.74693C18.8763 2.74394 18.9256 2.73871 18.9697 2.74938C19.1217 2.78611 19.2252 2.91542 19.3033 3.04191C19.4559 3.28926 19.5235 3.60985 19.4546 3.89547L19.4438 3.94191C19.4449 3.95547 19.4516 3.96839 19.4516 3.98201L19.4276 3.98426C19.4402 4.01572 19.4434 4.01759 19.4274 4.04635C19.424 4.05265 19.4059 4.07598 19.4035 4.08652C19.3976 4.11303 19.4122 4.10127 19.3953 4.12669L19.3794 4.14276C19.3792 4.17785 19.3709 4.17518 19.3473 4.19883L19.3471 4.21506L19.3151 4.24704C19.2893 4.2821 19.2585 4.32494 19.2227 4.35158C19.1743 4.3876 19.2112 4.35052 19.1808 4.38069L19.1705 4.39165L19.1545 4.37786L19.0313 4.43687C18.9508 4.45059 18.8563 4.45685 18.7767 4.43709C18.6449 4.40431 18.507 4.21837 18.4475 4.10532C18.318 3.85948 18.3192 3.49477 18.4076 3.23492C18.4862 3.00412 18.6132 2.85131 18.8314 2.74693Z" fill="url(#paint9_linear_755_2302)"/>
<path d="M7.24329 16.6384C7.30027 16.6782 7.3433 16.7223 7.38925 16.7743L7.39141 16.7742C7.52853 17.0146 7.54765 17.2555 7.4765 17.5212C7.40118 17.8025 7.22086 18.1772 6.95873 18.3276C6.80036 18.4184 6.64981 18.3976 6.48392 18.3468L6.46965 18.3423L6.32176 18.2651C6.31829 18.1827 6.29454 18.1018 6.28988 18.0186C6.268 17.6282 6.404 17.2001 6.66709 16.9082C6.82822 16.7295 7.00394 16.6493 7.24329 16.6384Z" fill="#ED8805"/>
<path d="M11.5148 13.9565C11.2681 13.8251 11.1005 13.6009 10.9916 13.3462C10.7947 12.8855 10.7844 12.2664 10.9828 11.8054C11.1721 11.3653 11.5328 11.0111 11.9814 10.8397C12.3834 10.6862 12.839 10.6794 13.2331 10.8602C13.5602 11.0103 13.8082 11.3082 13.9298 11.6435L13.9106 11.6377C13.8099 11.6062 13.7131 11.5329 13.6117 11.4934C13.2728 11.3613 12.8521 11.3868 12.5277 11.5479C12.101 11.7597 11.7655 12.1417 11.613 12.595C11.4604 13.0485 11.4924 13.4888 11.5148 13.9565Z" fill="#CE6704"/>
<path d="M11.5152 13.9565C11.4928 13.4888 11.4608 13.0485 11.6134 12.595C11.7659 12.1417 12.1014 11.7597 12.5281 11.5479C12.8525 11.3868 13.2732 11.3613 13.6121 11.4934C13.7135 11.5329 13.8103 11.6062 13.911 11.6377L13.9301 11.6435C13.9995 11.7782 13.9964 11.9166 13.9878 12.064C13.9451 12.6166 13.6139 13.247 13.1898 13.6035C12.9249 13.826 12.6221 13.9897 12.2775 14.0405L12.2485 14.045C12.0146 14.0786 11.7586 14.0475 11.5338 13.9764L11.5152 13.9565Z" fill="#ED8805"/>
<path d="M14.7209 0.855677C14.9934 0.8479 15.2691 0.836427 15.5414 0.855548C15.8776 0.8792 16.201 0.945304 16.5274 1.02703C16.8251 1.10158 17.1041 1.18652 17.3717 1.33968C17.393 1.38711 17.427 1.43502 17.4593 1.47551L17.517 1.54927L17.5315 1.57186C17.6342 1.72839 17.7476 1.96038 17.785 2.14597L17.7901 2.17229C17.8432 2.43256 17.8284 2.6701 17.7363 2.92157C17.6684 3.10693 17.5521 3.26748 17.4291 3.41968C16.8313 4.15922 15.995 4.62905 15.1701 5.06954L13.3837 5.94412L12.7354 6.23781C12.6664 6.26914 12.5955 6.31972 12.5258 6.34344C12.4697 6.36256 12.518 6.33801 12.4668 6.36661C12.4501 6.37596 12.4354 6.38438 12.4176 6.39199L12.398 6.40009L12.3483 6.42387C12.3226 6.43242 12.3108 6.43004 12.2843 6.4438L12.2329 6.4689C12.2062 6.48008 12.1784 6.48933 12.1551 6.50675C12.1313 6.52446 12.1201 6.53516 12.0908 6.54499C11.8404 6.62896 11.6088 6.78058 11.3777 6.90662C11.271 6.96479 11.1467 7.01961 11.0483 7.09121C10.9987 7.12723 10.9501 7.15281 10.898 7.18434L10.759 7.2678L10.5823 7.38027C10.5622 7.39483 10.5485 7.40563 10.5258 7.41697C10.4548 7.45238 10.3947 7.50358 10.3252 7.54069C10.0293 7.69871 9.74887 7.90698 9.47341 8.09838C9.09131 8.36386 8.74514 8.6517 8.38901 8.94982C7.94994 9.31733 7.5224 9.70081 7.13886 10.1271C6.17018 11.2035 5.38578 12.4872 4.73801 13.7788C4.50679 14.2398 4.32616 14.726 4.11422 15.1961C3.92381 15.6185 3.70028 16.0351 3.44374 16.421C3.38191 16.5322 3.29736 16.6368 3.22303 16.74C3.0536 16.9752 2.85076 17.2529 2.61347 17.423C2.51022 17.4971 2.38884 17.5482 2.25959 17.5213C2.08827 17.4857 1.90249 17.3256 1.81197 17.1785C1.51008 16.6879 1.40394 16.08 1.36679 15.5119C1.31257 14.6828 1.41801 13.8339 1.599 13.0259C1.96953 11.3715 2.68719 9.82884 3.56756 8.38664C4.12013 7.48137 4.72872 6.63359 5.42865 5.83489C6.58332 4.51728 7.93721 3.40158 9.45339 2.52453C10.7855 1.75404 12.1914 1.1996 13.7155 0.949963C14.0466 0.895718 14.3864 0.878043 14.7209 0.855677Z" fill="url(#paint10_linear_755_2302)"/>
<path d="M1.7207 14.4309C1.75149 14.1353 1.88636 13.8433 2.08869 13.6262C2.16453 13.5449 2.34276 13.3904 2.45983 13.4003C2.55585 13.4084 2.63198 13.4893 2.69658 13.5536C2.45765 13.5621 2.27492 13.6441 2.11026 13.8202C1.93319 14.0095 1.84799 14.2306 1.74609 14.4628C1.72784 14.4459 1.7368 14.4562 1.7207 14.4309Z" fill="#ED8805"/>
<path d="M2.69639 13.5536C2.8081 13.6822 2.85919 13.8176 2.88827 13.9844L2.89239 14.0062C2.91636 14.1424 2.90916 14.3006 2.87603 14.4343L2.87009 14.4601C2.82596 14.6477 2.69559 14.8496 2.52671 14.95C2.38943 15.0316 2.2257 15.083 2.06598 15.0552L2.04393 15.0516C1.93676 15.0325 1.85597 14.9635 1.79851 14.8731C1.76024 14.8129 1.73932 14.7446 1.72556 14.6753L1.72161 14.6565C1.71332 14.6137 1.70072 14.4681 1.72052 14.4309C1.73662 14.4562 1.72765 14.4459 1.74591 14.4628C1.84781 14.2306 1.933 14.0095 2.11007 13.8202C2.27473 13.6441 2.45746 13.5621 2.69639 13.5536Z" fill="#FBC709"/>
<path d="M14.3769 1.20836C14.5743 1.16318 14.9142 1.21739 15.094 1.31297C15.2304 1.38543 15.3479 1.50025 15.3937 1.65107L15.3989 1.66887L15.4163 1.74057C15.4381 1.89537 15.3734 2.05409 15.2795 2.17421C15.1203 2.37786 14.893 2.45842 14.6461 2.49062C14.5313 2.492 14.4023 2.50354 14.2901 2.48095C14.1317 2.44904 13.9866 2.40491 13.8517 2.31185C13.7223 2.22251 13.6056 2.09014 13.5839 1.92908C13.5649 1.78771 13.6096 1.6547 13.6974 1.54441C13.8665 1.33225 14.1154 1.23963 14.3769 1.20836Z" fill="#FBC709"/>
<path d="M10.7446 2.9764C11.0298 2.95146 11.3706 2.94832 11.627 3.09032C11.7471 3.15678 11.8691 3.26473 11.9031 3.40323C11.9913 3.76242 11.7583 4.16746 11.5723 4.46214C11.2932 4.9045 10.9234 5.2926 10.533 5.63803C10.3128 5.83284 10.0729 6.00261 9.83537 6.17518L8.60614 7.01088C8.22423 7.25543 7.83979 7.5113 7.43369 7.71446C7.13039 7.86618 6.82796 7.98666 6.49635 8.06021L6.45245 8.06828C6.30903 8.09637 6.1523 8.11375 6.00705 8.08843L5.98648 8.08451C5.85058 8.05989 5.71853 8.0248 5.60297 7.94597C5.484 7.86483 5.38419 7.72533 5.36227 7.58129C5.34347 7.45799 5.37715 7.32199 5.41947 7.20678C5.56244 6.81774 5.85941 6.43176 6.11959 6.11107C6.47372 5.67457 6.8742 5.2693 7.28805 4.88991C7.53019 4.66794 7.77276 4.44656 8.03438 4.24725C8.26064 4.07487 8.49871 3.92229 8.73613 3.76614C9.04846 3.5607 9.36509 3.3602 9.71316 3.21938C10.047 3.08432 10.387 3.01288 10.7446 2.9764Z" fill="#FDFAA6"/>
<defs>
<linearGradient id="paint0_linear_755_2302" x1="18.6744" y1="20.9287" x2="14.7542" y2="16.3254" gradientUnits="userSpaceOnUse">
<stop stop-color="#6A1E00"/>
<stop offset="1" stop-color="#913100"/>
</linearGradient>
<linearGradient id="paint1_linear_755_2302" x1="19.1587" y1="20.4299" x2="14.0743" y2="7.87062" gradientUnits="userSpaceOnUse">
<stop stop-color="#8D3600"/>
<stop offset="1" stop-color="#C87A00"/>
</linearGradient>
<linearGradient id="paint2_linear_755_2302" x1="21.5126" y1="14.1484" x2="22.0376" y2="14.6901" gradientUnits="userSpaceOnUse">
<stop stop-color="#791500"/>
<stop offset="1" stop-color="#AD4D01"/>
</linearGradient>
<linearGradient id="paint3_linear_755_2302" x1="16.2173" y1="20.7223" x2="11.4636" y2="10.6702" gradientUnits="userSpaceOnUse">
<stop stop-color="#AA5300"/>
<stop offset="1" stop-color="#EC9701"/>
</linearGradient>
<linearGradient id="paint4_linear_755_2302" x1="10.6858" y1="21.2105" x2="11.1115" y2="22.8521" gradientUnits="userSpaceOnUse">
<stop stop-color="#C13F00"/>
<stop offset="1" stop-color="#FFBC04"/>
</linearGradient>
<linearGradient id="paint5_linear_755_2302" x1="15.0326" y1="17.8508" x2="11.5513" y2="12.5741" gradientUnits="userSpaceOnUse">
<stop stop-color="#D88A01"/>
<stop offset="1" stop-color="#E5A405"/>
</linearGradient>
<linearGradient id="paint6_linear_755_2302" x1="5.63326" y1="20.805" x2="6.36394" y2="21.5366" gradientUnits="userSpaceOnUse">
<stop stop-color="#CF5C01"/>
<stop offset="1" stop-color="#E57F02"/>
</linearGradient>
<linearGradient id="paint7_linear_755_2302" x1="14.357" y1="16.0415" x2="6.74278" y2="3.34462" gradientUnits="userSpaceOnUse">
<stop stop-color="#E6A609"/>
<stop offset="1" stop-color="#FFE71E"/>
</linearGradient>
<linearGradient id="paint8_linear_755_2302" x1="17.3809" y1="6.69448" x2="18.1499" y2="7.53851" gradientUnits="userSpaceOnUse">
<stop stop-color="#E28706"/>
<stop offset="1" stop-color="#FCB80A"/>
</linearGradient>
<linearGradient id="paint9_linear_755_2302" x1="18.3696" y1="3.28345" x2="19.4351" y2="3.9251" gradientUnits="userSpaceOnUse">
<stop stop-color="#E47502"/>
<stop offset="1" stop-color="#FFC307"/>
</linearGradient>
<linearGradient id="paint10_linear_755_2302" x1="11.1332" y1="11.5118" x2="6.36736" y2="4.58783" gradientUnits="userSpaceOnUse">
<stop stop-color="#FBD12D"/>
<stop offset="1" stop-color="#FFFA3E"/>
</linearGradient>
</defs>
</svg>
